<svg xmlns="http://www.w3.org/2000/svg" viewBox="0 0 1700.79 1700.79"><defs><style>.cls-1{fill:#c9c9c9;}</style></defs><g id="レイヤー_2" data-name="レイヤー 2"><g id="レイヤー_1-2" data-name="レイヤー 1"><path class="cls-1" d="M1522.8,815H1363.71l1.92,122.29c.32,6.32,2.24,70.88-40.69,102.47-34.77,25.6-118.09,23.46-142.79,22.21-14.55-.81-56.5,1.51-77.77,21.79-9.6,9.14-14.19,21.45-14.05,37.64.69,79-.81,419.79-.83,423.21.15,8.19,4.54,80.71,101.35,85.07a848.11,848.11,0,0,0,119.78-64.37,39.23,39.23,0,0,0-.21-4.71c-3.06-21.76-.84-291.52-.08-374.47-.13-7.67.69-51.07,34.31-85.8,25.84-26.69,63.08-40.22,110.7-40.22,121.16,0,170.15,76.93,179.59,118.8a852.16,852.16,0,0,0,47-506.81C1673.32,752.33,1605.26,815,1522.8,815Z"/><path class="cls-1" d="M1179.34,154.08a104.65,104.65,0,0,0-104.52,104.53V654.94a104.65,104.65,0,0,0,104.52,104.53h128l-9.49-605.39Z"/><path class="cls-1" d="M1455.35,1115.66c-31.69,0-55.37,7.7-70.35,22.87-19.23,19.47-19.13,46.52-19.12,46.79-1,110.17-2,277.5-1.16,342.19a854.75,854.75,0,0,0,215.61-240.77V1189.5C1576.53,1176.93,1553,1115.66,1455.35,1115.66Z"/><path class="cls-1" d="M450.15,942l-269-134.88a182.83,182.83,0,0,0-48.64,124.1v161.68Z"/><path class="cls-1" d="M540.5,1164.57v477.71a847.53,847.53,0,0,0,309.89,58.51c7.58,0,15.07-.38,22.6-.57V1164.57Z"/><path class="cls-1" d="M513.79,911.72,792.51,779.31a182.67,182.67,0,0,0-103.24-31.86h-373a182.56,182.56,0,0,0-86.63,21.78Z"/><polygon class="cls-1" points="513.13 973.52 227.9 1109.02 783.4 1109.02 513.13 973.52"/><path class="cls-1" d="M132.49,1164.57V1306A853.86,853.86,0,0,0,485,1618.39V1164.57Z"/><path class="cls-1" d="M1034,1544.5c0-3.55,1.51-344,.83-422.61-.28-31.61,10.61-58.76,31.48-78.54,42.61-40.37,111.32-37.33,119-36.82,41,2.05,93.9-2,106.71-11.49,16.18-11.91,18.55-45.28,18.1-56l-1.94-124H1179.34c-88.26,0-160.07-71.8-160.07-160.07V258.61c0-88.26,71.81-160.07,160.07-160.07h68.4A850.46,850.46,0,0,0,473.67,88h427.1a27.77,27.77,0,0,1,0,55.54H377.6A853.75,853.75,0,0,0,270.45,228.7H829.1a99.55,99.55,0,0,1,99.44,99.43v181a99.55,99.55,0,0,1-99.44,99.44H176.38A99.55,99.55,0,0,1,77,509.17V497a850,850,0,0,0,0,706.79V931.17C77,799.24,184.28,691.9,316.22,691.9h373c131.93,0,239.27,107.34,239.27,239.27v765.9a846.78,846.78,0,0,0,174.34-34.4C1035.07,1623,1034,1545.55,1034,1544.5Z"/><path class="cls-1" d="M576.77,943.29,873,1091.8V931.17a182.56,182.56,0,0,0-37.5-110.78Z"/><path class="cls-1" d="M132.49,509.17a43.94,43.94,0,0,0,43.89,43.89H829.1A43.94,43.94,0,0,0,873,509.17v-181a43.94,43.94,0,0,0-43.89-43.89H216a853.8,853.8,0,0,0-83.55,110.57Z"/><path class="cls-1" d="M1353.53,164.91l9.31,594.56h160a104.66,104.66,0,0,0,104.53-104.53V504.71A853.29,853.29,0,0,0,1353.53,164.91Z"/></g></g></svg>